<svg id="visual" viewBox="0 0 900 600" width="900" height="600" xmlns="http://www.w3.org/2000/svg" xmlns:xlink="http://www.w3.org/1999/xlink" version="1.1"><rect x="0" y="0" width="900" height="600" fill="#28283c"></rect><path d="M544 600L554.3 585.7C564.7 571.3 585.3 542.7 599 514.2C612.7 485.7 619.3 457.3 626.5 428.8C633.7 400.3 641.3 371.7 633.7 343C626 314.3 603 285.7 582.7 257C562.3 228.3 544.7 199.7 559.3 171.2C574 142.7 621 114.3 633.5 85.8C646 57.3 624 28.7 613 14.3L602 0L900 0L900 14.3C900 28.7 900 57.3 900 85.8C900 114.3 900 142.7 900 171.2C900 199.7 900 228.3 900 257C900 285.7 900 314.3 900 343C900 371.7 900 400.3 900 428.8C900 457.3 900 485.7 900 514.2C900 542.7 900 571.3 900 585.7L900 600Z" fill="#e37d7d"></path><path d="M650 600L645.8 585.7C641.7 571.3 633.3 542.7 641.3 514.2C649.3 485.7 673.7 457.3 683.3 428.8C693 400.3 688 371.7 686.7 343C685.3 314.3 687.7 285.7 676.5 257C665.3 228.3 640.7 199.7 637.5 171.2C634.3 142.7 652.7 114.3 649.8 85.8C647 57.3 623 28.7 611 14.3L599 0L900 0L900 14.3C900 28.7 900 57.3 900 85.8C900 114.3 900 142.7 900 171.2C900 199.7 900 228.3 900 257C900 285.7 900 314.3 900 343C900 371.7 900 400.3 900 428.8C900 457.3 900 485.7 900 514.2C900 542.7 900 571.3 900 585.7L900 600Z" fill="#e96764"></path><path d="M697 600L694.2 585.7C691.3 571.3 685.7 542.7 680.7 514.2C675.7 485.7 671.3 457.3 672.7 428.8C674 400.3 681 371.7 691.8 343C702.7 314.3 717.3 285.7 725.7 257C734 228.3 736 199.7 740.3 171.2C744.7 142.7 751.3 114.3 739.5 85.8C727.7 57.3 697.3 28.7 682.2 14.3L667 0L900 0L900 14.3C900 28.7 900 57.3 900 85.8C900 114.3 900 142.7 900 171.2C900 199.7 900 228.3 900 257C900 285.7 900 314.3 900 343C900 371.7 900 400.3 900 428.8C900 457.3 900 485.7 900 514.2C900 542.7 900 571.3 900 585.7L900 600Z" fill="#eb5049"></path><path d="M774 600L765.7 585.7C757.3 571.3 740.7 542.7 735.8 514.2C731 485.7 738 457.3 746 428.8C754 400.3 763 371.7 762.7 343C762.3 314.3 752.7 285.7 751.5 257C750.3 228.3 757.7 199.7 762.7 171.2C767.7 142.7 770.3 114.3 774.5 85.8C778.7 57.3 784.3 28.7 787.2 14.3L790 0L900 0L900 14.3C900 28.7 900 57.3 900 85.8C900 114.3 900 142.7 900 171.2C900 199.7 900 228.3 900 257C900 285.7 900 314.3 900 343C900 371.7 900 400.3 900 428.8C900 457.3 900 485.7 900 514.2C900 542.7 900 571.3 900 585.7L900 600Z" fill="#ea342b"></path><path d="M821 600L821.5 585.7C822 571.3 823 542.7 817.7 514.2C812.3 485.7 800.7 457.3 800.7 428.8C800.7 400.3 812.3 371.7 818.7 343C825 314.3 826 285.7 829.5 257C833 228.3 839 199.7 836.7 171.2C834.3 142.7 823.7 114.3 819.7 85.8C815.7 57.3 818.3 28.7 819.7 14.3L821 0L900 0L900 14.3C900 28.7 900 57.3 900 85.8C900 114.3 900 142.7 900 171.2C900 199.7 900 228.3 900 257C900 285.7 900 314.3 900 343C900 371.7 900 400.3 900 428.8C900 457.3 900 485.7 900 514.2C900 542.7 900 571.3 900 585.7L900 600Z" fill="#e70101"></path></svg>